<svg
  xmlns="http://www.w3.org/2000/svg"
  width="512"
  height="512"
  viewBox="0 0 512 512"
>
  <path
    fill="#abb6bb"
    d="M302.99 336.597s42.06-39.875 45.092-101.401c3.032-61.526-27.993-102.569-27.993-102.569s17.355 66.63-3.948 93.735c-21.302 27.106-77.095 26.78-77.095 26.78s-55.793.326-77.094-26.78c-21.304-27.105-3.95-93.735-3.95-93.735s-31.026 41.043-27.994 102.569c3.032 61.526 45.093 101.401 45.093 101.401s-53.67 4.005-69.248 51.419c-15.58 47.415 24.326 100.16 24.326 100.16s135.504.329 179.865 0c44.361-.329 179.866 0 179.866 0s39.906-52.745 24.326-100.16c-15.58-47.414-69.249-51.419-69.249-51.419Z"
  />
  <path
    fill="#f0f3f4"
    d="M256.003 15C126.363 15 20 121.109 20 251.215c0 105.624 72.554 194.761 171.161 219.998l-.164-12.345S121.962 418.419 121.962 316.816C121.962 215.214 178.11 134.2 256 134.2s134.04 80.942 134.04 182.616c0 101.664-69.063 142.066-69.063 142.066l-.164 12.369c98.607-25.237 171.161-114.374 171.161-219.998C492.006 121.109 385.64 15 256.003 15Z"
  />
  <path
    fill="#e2e6e7"
    d="M205.747 186.224c-21.304-27.105-3.949-93.735-3.949-93.735s-31.026 41.043-27.994 102.569c3.032 61.526 45.093 101.401 45.093 101.401s-53.67 4.004-69.248 51.419c-15.58 47.414 24.326 100.16 24.326 100.16s-49.482-16.73-72.647-69.382C87.664 381.718 83 347.242 83 351.215C83 149.3 177.035 54.792 256.003 54.792c-66.307 0-90.637 87.941-50.256 131.432Z"
  />
  <path
    fill="#c5ced1"
    d="M306.261 186.224c21.302-27.105 3.948-93.735 3.948-93.735s31.025 41.043 27.993 102.569c-3.032 61.526-45.093 101.401-45.093 101.401s53.67 4.004 69.249 51.419c15.58 47.414-24.327 100.16-24.327 100.16s49.482-16.73 72.646-69.382C424.343 381.718 429 347.242 429 351.215c0-201.915-94.035-296.423-173.001-296.423 66.306 0 90.636 87.941 50.262 131.432Z"
  />
  <path
    fill="#9eaeb2"
    d="M268.974 181.765c-24.557 5.698-17.733 29.112-17.733 29.112h-8.483s6.806-23.414-17.752-29.112c-33.158-7.707-43.315-52.746-43.315-52.746S204.225 60 256 60s73.309 68.019 73.309 68.019s-10.153 45.04-43.309 53.746Z"
  />
</svg>

